<svg width="24" height="24" viewBox="0 0 24 24" fill="none" xmlns="http://www.w3.org/2000/svg">
<path d="M1.21875 15.5938L3.22227 8.91837C3.26687 8.76978 3.35834 8.63961 3.48303 8.54731C3.60772 8.45501 3.75893 8.40553 3.91406 8.40626H11.4609C11.6161 8.40553 11.7673 8.45501 11.892 8.54731C12.0167 8.63961 12.1081 8.76978 12.1527 8.91837L14.1562 15.5938" stroke="#4E73DF" stroke-width="1.5" stroke-linecap="round" stroke-linejoin="round"/>
<path d="M14.875 8.40626H15.7734C15.9286 8.40553 16.0798 8.45501 16.2045 8.54731C16.3292 8.63961 16.4206 8.76978 16.4652 8.91837L18.4688 15.5938" stroke="#4E73DF" stroke-width="1.5" stroke-linecap="round" stroke-linejoin="round"/>
<path d="M19.1875 8.40626H20.0859C20.2411 8.40553 20.3923 8.45501 20.517 8.54731C20.6417 8.63961 20.7331 8.76978 20.7777 8.91837L22.7812 15.5938" stroke="#4E73DF" stroke-width="1.5" stroke-linecap="round" stroke-linejoin="round"/>
<path d="M1.21875 15.5938H22.7812" stroke="#4E73DF" stroke-width="1.5" stroke-linecap="round" stroke-linejoin="round"/>
</svg>
