<svg width="44" height="44" viewBox="0 0 44 44" fill="none" xmlns="http://www.w3.org/2000/svg">
<rect x="0.5" y="1" width="43" height="42" rx="21" fill="white"/>
<rect x="0.5" y="1" width="43" height="42" rx="21" stroke="#DDDDDD"/>
<path d="M33.2355 21.0362L28.4759 25.129L29.926 31.2496C30.006 31.5819 29.9854 31.9303 29.8668 32.2509C29.7482 32.5715 29.5369 32.8499 29.2596 33.0509C28.9823 33.2518 28.6514 33.3664 28.3088 33.3801C27.9662 33.3938 27.6272 33.306 27.3346 33.1278L21.9933 29.852L16.6488 33.1278C16.3562 33.305 16.0176 33.392 15.6756 33.3778C15.3336 33.3636 15.0034 33.2488 14.7267 33.048C14.45 32.8472 14.2391 32.5693 14.1206 32.2493C14.002 31.9292 13.9812 31.5814 14.0606 31.2496L15.516 25.129L10.7564 21.0362C10.4975 20.8133 10.3104 20.5194 10.2182 20.1911C10.126 19.8628 10.1329 19.5147 10.2381 19.1903C10.3433 18.8659 10.542 18.5796 10.8095 18.3671C11.077 18.1546 11.4014 18.0253 11.7421 17.9954L17.9825 17.4937L20.3898 11.6882C20.5201 11.3718 20.7419 11.1012 21.0269 10.9107C21.312 10.7202 21.6474 10.6185 21.9906 10.6185C22.3338 10.6185 22.6693 10.7202 22.9543 10.9107C23.2394 11.1012 23.4612 11.3718 23.5915 11.6882L25.9977 17.4937L32.2381 17.9954C32.5795 18.0242 32.9049 18.1527 33.1733 18.365C33.4418 18.5772 33.6414 18.8636 33.7473 19.1884C33.8531 19.5132 33.8603 19.8619 33.7682 20.1908C33.676 20.5196 33.4885 20.8141 33.2292 21.0373L33.2355 21.0362Z" fill="#CCCCCC"/>
</svg>
