<svg width="24" height="24" viewBox="0 0 24 24" fill="none" xmlns="http://www.w3.org/2000/svg">
<path d="M12 14.875C13.5878 14.875 14.875 13.5878 14.875 12C14.875 10.4122 13.5878 9.125 12 9.125C10.4122 9.125 9.125 10.4122 9.125 12C9.125 13.5878 10.4122 14.875 12 14.875Z" stroke="#4E73DF" stroke-width="1.5" stroke-linecap="round" stroke-linejoin="round"/>
<path d="M7.42688 16.573C6.83663 15.9834 6.36671 15.2847 6.04329 14.5156C5.70523 13.72 5.53101 12.8644 5.53101 12C5.53101 11.1355 5.70523 10.28 6.04329 9.48436C6.36671 8.71532 6.83663 8.01654 7.42688 7.42694" stroke="#4E73DF" stroke-width="1.5" stroke-linecap="round" stroke-linejoin="round"/>
<path d="M16.573 7.42694C17.1632 8.01654 17.6332 8.71532 17.9566 9.48436C18.2946 10.28 18.4689 11.1355 18.4689 12C18.4689 12.8644 18.2946 13.72 17.9566 14.5156C17.6332 15.2847 17.1632 15.9834 16.573 16.573" stroke="#4E73DF" stroke-width="1.5" stroke-linecap="round" stroke-linejoin="round"/>
<path d="M4.88444 19.1156C3.96772 18.1972 3.23574 17.1115 2.72819 15.9172C2.20633 14.6772 1.9375 13.3454 1.9375 12C1.9375 10.6547 2.20633 9.32286 2.72819 8.08284C3.23574 6.88858 3.96772 5.80281 4.88444 4.8844" stroke="#4E73DF" stroke-width="1.5" stroke-linecap="round" stroke-linejoin="round"/>
<path d="M19.1157 4.8844C20.0324 5.80281 20.7644 6.88858 21.272 8.08284C21.7938 9.32286 22.0627 10.6547 22.0627 12C22.0627 13.3454 21.7938 14.6772 21.272 15.9172C20.7644 17.1115 20.0324 18.1972 19.1157 19.1156" stroke="#4E73DF" stroke-width="1.5" stroke-linecap="round" stroke-linejoin="round"/>
</svg>
